<?xml version="1.0" encoding="UTF-8"?>
<svg version="1.1" xmlns="http://www.w3.org/2000/svg" width="2028" height="811">
<path d="M0 0 C2.50875869 2.21587749 4.93945043 4.49224615 7.35546875 6.80859375 C8.11601563 7.50597656 8.8765625 8.20335938 9.66015625 8.921875 C23.49189275 22.01177096 33.97846858 40.92798542 40.35546875 58.80859375 C40.35546875 59.79859375 40.35546875 60.78859375 40.35546875 61.80859375 C41.21374268 61.53708496 42.0720166 61.26557617 42.95629883 60.98583984 C126.97994193 34.56035656 211.43657994 32.95104469 294.35546875 63.80859375 C294.56236328 62.67925415 294.56236328 62.67925415 294.7734375 61.52709961 C299.81660822 37.97185383 319.58660148 14.88600383 339.23046875 2.12109375 C361.73320887 -12.09469999 361.73320887 -12.09469999 368.57421875 -10.7578125 C369.16203125 -10.57089844 369.74984375 -10.38398438 370.35546875 -10.19140625 C360.06503419 24.99131074 349.77078116 60.17291119 339.453125 95.34765625 C339.02810448 96.7967828 339.02810448 96.7967828 338.59449768 98.27518463 C335.46327436 108.95089764 332.32911245 119.62573651 329.18896484 130.29882812 C328.06586198 134.1171232 326.94300416 137.93549025 325.8203125 141.75390625 C325.54602921 142.68665123 325.27174591 143.61939621 324.989151 144.58040619 C321.35193166 156.95382808 317.75225388 169.33745202 314.18798447 181.73207474 C312.82588422 186.46278604 311.45593465 191.19123066 310.08562279 195.91956902 C309.03529817 199.54683981 307.99063866 203.17552217 306.96032715 206.80853271 C301.19686657 227.11943744 295.00935676 244.45621774 281.35546875 260.80859375 C280.79859375 261.50597656 280.24171875 262.20335937 279.66796875 262.921875 C262.34955957 284.14633843 235.08593415 296.76183792 208.35546875 299.80859375 C203.84320901 300.08641872 199.34290968 300.15114849 194.82286072 300.18077087 C192.89298171 300.20466042 192.89298171 300.20466042 190.92411524 300.22903258 C187.39675902 300.27250343 183.86938074 300.30470528 180.3418895 300.33491981 C176.52120553 300.36972616 172.70064859 300.41535617 168.88006592 300.45973206 C162.27401127 300.53513353 155.66791562 300.60418511 149.06175041 300.66914177 C139.50509193 300.76337741 129.94861159 300.87063686 120.39213378 300.98155875 C104.87680279 301.16156786 89.36141184 301.33556811 73.84594727 301.50366211 C72.91911342 301.51370663 71.99227957 301.52375116 71.03735984 301.53410006 C60.68414547 301.64615335 50.33091461 301.75654937 39.97766113 301.8649292 C36.21565744 301.90432712 32.45365381 301.94373045 28.69165039 301.9831543 C27.29901368 301.99774379 27.29901368 301.99774379 25.8782429 302.01262801 C10.4066496 302.17502114 -5.06479271 302.34876182 -20.5361585 302.53153712 C-30.07228095 302.64371321 -39.60841116 302.74610535 -49.14477079 302.8359331 C-55.67042441 302.89811973 -62.19590672 302.97079664 -68.72135378 303.05179518 C-72.48701659 303.09818187 -76.25257281 303.13969342 -80.01841545 303.16839218 C-84.09749543 303.19957935 -88.17596205 303.25338505 -92.254776 303.30943298 C-93.44852893 303.31489401 -94.64228187 303.32035504 -95.87220913 303.32598156 C-97.50964554 303.35399155 -97.50964554 303.35399155 -99.18016148 303.38256741 C-100.59215961 303.39745902 -100.59215961 303.39745902 -102.03268296 303.41265148 C-105.18352358 303.89030211 -107.08632411 304.9315305 -109.64453125 306.80859375 C-110.79927737 309.2466953 -110.79927737 309.2466953 -110.64453125 311.80859375 C-109.54184463 313.55094902 -109.54184463 313.55094902 -107.64453125 314.80859375 C-105.0331292 315.30599007 -105.0331292 315.30599007 -102.00296021 315.29504395 C-100.80054121 315.32680473 -99.59812222 315.35856552 -98.35926628 315.39128876 C-97.00009638 315.41166115 -95.64092 315.43160402 -94.28173828 315.45117188 C-92.82142025 315.48263871 -91.36112441 315.51514887 -89.9008503 315.54859161 C-85.7338743 315.63847835 -81.56679314 315.70610134 -77.39931202 315.76771927 C-74.56750536 315.80973663 -71.73576324 315.85497571 -68.90401459 315.90072632 C-54.33347385 316.13258936 -39.76240484 316.31129818 -25.1910491 316.4828434 C-18.81232369 316.55870347 -12.43364554 316.63834933 -6.05496216 316.71765137 C4.66109191 316.8504531 15.37716518 316.98151899 26.09326172 317.11083984 C26.76805666 317.11898388 27.44285161 317.12712791 28.13809489 317.13551873 C30.8695738 317.16848072 33.60105279 317.20143638 36.33253188 317.23438397 C43.81918545 317.32470581 51.30583423 317.41542011 58.79248047 317.50634766 C59.4621676 317.51448052 60.13185473 317.52261338 60.82183541 317.53099269 C72.14245978 317.66853355 83.46306213 317.80781437 94.78365314 317.94807673 C101.08527706 318.0260351 107.38690902 318.10309526 113.68857193 318.17784119 C126.308272 318.32770071 138.92777185 318.48541046 151.54703176 318.66900682 C157.05992707 318.74914422 162.5727982 318.82439998 168.08589935 318.88900757 C173.52907522 318.95324696 178.97188578 319.03148207 184.41472411 319.11969662 C186.42442274 319.15002647 188.4341992 319.17565154 190.44402337 319.19603062 C208.04942586 319.37978241 225.14344695 320.59657195 238.35546875 333.80859375 C248.94096597 347.43375515 250.70438429 360.99439745 249.35546875 377.80859375 C248.78571578 381.25762122 247.94141432 384.58880301 247.01171875 387.95703125 C246.75132309 388.92509705 246.49092743 389.89316284 246.22264099 390.89056396 C242.40673248 404.69192647 237.75536712 418.24514736 233.1769104 431.80760574 C232.14902381 434.85627278 231.12686554 437.90684913 230.10447884 440.95736408 C222.81062368 462.71461256 215.39831043 484.43058565 207.73728943 506.06161499 C206.2878045 510.15434905 204.85303929 514.25171897 203.43359375 518.35498047 C203.1130603 519.27915268 202.79252686 520.20332489 202.46228027 521.15550232 C201.83955825 522.95242562 201.21911101 524.75013924 200.60119629 526.54872131 C200.32223511 527.35240646 200.04327393 528.15609161 199.75585938 528.98413086 C199.50920532 529.69943466 199.26255127 530.41473846 199.00842285 531.15171814 C198.35546875 532.80859375 198.35546875 532.80859375 197.35546875 533.80859375 C115.74480187 544.9146459 25.59754741 518.38764603 -39.609375 469.58984375 C-41.99285244 467.70469465 -44.32125826 465.76727966 -46.64453125 463.80859375 C-47.55074219 463.08542969 -48.45695312 462.36226563 -49.390625 461.6171875 C-56.79900293 455.58667349 -63.62129973 449.04265649 -70.39453125 442.30859375 C-71.70707886 441.009823 -71.70707886 441.009823 -73.04614258 439.68481445 C-113.67415476 398.86478029 -137.11139516 346.31020129 -137.08078003 288.7694397 C-136.84627615 251.06620999 -126.38220171 217.19084418 -109.64453125 183.80859375 C-110.27617188 183.43089844 -110.9078125 183.05320313 -111.55859375 182.6640625 C-139.68365007 165.35945292 -160.48597583 141.65760058 -168.2890625 109.12109375 C-174.38481413 79.65098516 -168.59293606 47.22109836 -152.19140625 21.92578125 C-138.04630442 1.04374725 -117.6632987 -11.31811116 -93.64453125 -18.19140625 C-92.57976562 -18.51238281 -91.515 -18.83335938 -90.41796875 -19.1640625 C-59.26205581 -27.00776424 -24.76994259 -20.52575745 0 0 Z " fill="#F4801F" transform="translate(1442.64453125,21.19140625)"/>
<path d="M0 0 C27.15893082 -0.97512119 51.3655651 7.06443986 72 25 C72.81984375 25.68707031 73.6396875 26.37414062 74.484375 27.08203125 C92.53267604 42.63607951 105.17707792 63.94239902 111 87 C111.33837891 88.33804688 111.33837891 88.33804688 111.68359375 89.703125 C117.20181849 116.34283063 110.71143336 143.51135787 96 166 C84.70883831 181.79015455 69.77301715 195.26594279 53 205 C54.54020551 209.82180449 56.19417743 214.57540813 58.05078125 219.28515625 C80.03052479 275.17332405 81.02368092 334.79935915 57.1640625 390.3203125 C49.21555876 408.23937989 38.35849861 423.8674398 26 439 C25.52546387 439.59167969 25.05092773 440.18335938 24.56201172 440.79296875 C11.13265504 457.49813444 -4.5747899 473.48959275 -22 486 C-23.09909744 486.82621128 -24.19673203 487.6543718 -25.29296875 488.484375 C-34.69750198 495.51289701 -44.74919593 501.3048774 -55 507 C-56.09078857 507.6182666 -56.09078857 507.6182666 -57.20361328 508.24902344 C-87.48562033 525.36583999 -130.69521205 546.59552709 -165.875 546.0625 C-166.60348145 546.0514624 -167.33196289 546.0404248 -168.08251953 546.02905273 C-169.03167236 546.01467163 -169.03167236 546.01467163 -170 546 C-168.30792556 537.43851018 -165.66638623 529.20511336 -163.046875 520.89453125 C-162.54920829 519.30554166 -162.05192272 517.71643265 -161.55499268 516.12721252 C-160.2306043 511.8944075 -158.9020872 507.66290992 -157.57263184 503.43169403 C-155.10002467 495.5591104 -152.63562115 487.68395406 -150.171875 479.80859375 C-149.90181137 478.94578545 -149.63174774 478.08297714 -149.35350037 477.19402313 C-146.03736805 466.59538278 -142.76058026 455.98733523 -139.578125 445.34765625 C-139.10255157 443.76163353 -139.10255157 443.76163353 -138.61737061 442.14356995 C-137.21877034 437.47316928 -135.83148477 432.79992496 -134.46386719 428.12036133 C-128.48076642 407.90570671 -120.77223093 389.19130543 -107 373 C-106.17048828 371.96939453 -106.17048828 371.96939453 -105.32421875 370.91796875 C-89.75352236 352.0770545 -63.54856226 337.59514596 -39.24324036 335.21995544 C-38.40629135 335.14479202 -37.56934235 335.0696286 -36.70703125 334.9921875 C-35.80438034 334.90884659 -34.90172943 334.82550568 -33.97172546 334.73963928 C-22.10418694 333.68746006 -10.20788748 333.07736416 1.6875 332.4375 C5.15275071 332.24892645 8.61792047 332.059094 12.08296204 331.86671448 C14.21433256 331.74857681 16.34582674 331.63263988 18.47746277 331.51939392 C23.17563023 331.26079415 27.86926737 330.96445095 32.55786133 330.56665039 C33.35001541 330.50030899 34.14216949 330.43396759 34.95832825 330.36561584 C37.23644937 330.09441556 37.23644937 330.09441556 39.6875 328.25 C41.22044357 326.05623561 41.22044357 326.05623561 41 323.375 C40.22761343 320.92878379 40.22761343 320.92878379 38.32492065 319.88671875 C35.4217326 318.7794503 32.90566128 318.60792497 29.80126953 318.4375 C28.54541046 318.36402344 27.28955139 318.29054688 25.99563599 318.21484375 C24.99158911 318.16239502 24.99158911 318.16239502 23.96725845 318.10888672 C21.85386098 317.99848764 19.74129633 317.87749313 17.62863159 317.75390625 C13.88942424 317.53694693 10.14976056 317.32946156 6.40985107 317.125 C0.4608085 316.79953882 -5.48769502 316.46550092 -11.43564224 316.12060547 C-13.49223637 316.00355441 -15.54913011 315.89403366 -17.60617065 315.78515625 C-35.30399504 314.7750624 -51.96559995 313.28245957 -65 300 C-74.42497408 287.96092934 -77.11882155 275.06450918 -76 260 C-75.56197326 257.35681759 -75.07806425 254.80630891 -74.4765625 252.203125 C-74.30325912 251.44125381 -74.12995575 250.67938263 -73.95140076 249.89442444 C-71.29746787 238.60985271 -67.91792289 227.51308371 -64.63985825 216.3981514 C-63.64640747 213.024491 -62.65978692 209.64883579 -61.6730957 206.27319336 C-61.47030974 205.57942754 -61.26752378 204.88566172 -61.0585928 204.17087269 C-60.64292335 202.74866273 -60.22729048 201.32644209 -59.81169319 199.90421104 C-59.17465058 197.72495675 -58.53688277 195.54591562 -57.89903259 193.36689758 C-54.8618412 182.98541883 -51.86175996 172.59364362 -48.8828125 162.1953125 C-48.67020279 161.45330849 -48.45759308 160.71130447 -48.23854065 159.94681549 C-47.37419078 156.9301028 -46.50996012 153.91335599 -45.64585876 150.89657211 C-38.0267534 124.29944741 -30.32019481 97.72922614 -22.47977066 71.19645309 C-21.82841048 68.99136275 -21.17793416 66.78601348 -20.52767944 64.58059692 C-16.16890318 49.80382209 -11.74811225 35.04731006 -7.1774044 20.3345356 C-6.73806163 18.92010163 -6.29971782 17.50535692 -5.86243629 16.09028435 C-5.25791132 14.13657784 -4.64866613 12.18441088 -4.0378418 10.23266602 C-3.69182419 9.12262711 -3.34580658 8.0125882 -2.98930359 6.86891174 C-2.15168266 4.43986919 -1.22144315 2.25418829 0 0 Z " fill="#FAAB42" transform="translate(1835,6)"/>
<path d="M0 0 C23.0175 -0.12375 23.0175 -0.12375 46.5 -0.25 C51.31400391 -0.28641602 56.12800781 -0.32283203 61.08789062 -0.36035156 C67.04589844 -0.37841797 67.04589844 -0.37841797 69.85046387 -0.3817749 C71.7756319 -0.38784733 73.70078641 -0.40176724 75.62585449 -0.42230225 C94.83825776 -0.61668693 112.61367289 0.98985676 127.375 14.6875 C137.28601659 25.10273365 138.47736695 36.32249865 138.27734375 49.98828125 C137.81170853 62.45386891 131.58172192 70.5489642 123 79 C124.21236328 80.051875 124.21236328 80.051875 125.44921875 81.125 C137.00253181 91.30828374 137.00253181 91.30828374 140 98 C140.31453125 98.68707031 140.6290625 99.37414062 140.953125 100.08203125 C144.86979174 110.53241023 144.73078705 124.41551488 140.25390625 134.6171875 C133.04315167 148.31986754 123.36263353 155.61095454 108.81629944 160.77526855 C98.12861872 163.99365104 87.22544358 163.37682541 76.171875 163.29296875 C74.21826433 163.28854951 72.2646501 163.28549415 70.31103516 163.28381348 C63.12396873 163.26818207 55.9369787 163.22629842 48.75 163.1875 C24.61875 163.0946875 24.61875 163.0946875 0 163 C0 109.21 0 55.42 0 0 Z M42 36 C42 45.24 42 54.48 42 64 C47.1231134 64.04610802 52.24549619 64.08587398 57.36865234 64.10986328 C59.10858612 64.11987218 60.8485033 64.13348343 62.58837891 64.15087891 C65.10062785 64.17535354 67.61265288 64.1865344 70.125 64.1953125 C71.27705933 64.21079636 71.27705933 64.21079636 72.45239258 64.22659302 C78.71984059 64.22787216 84.50639657 63.6262631 89.875 60.125 C93.31767178 56.68232822 93.92099921 54.99540992 94.3125 50.0625 C94.19991617 46.2698322 93.42607475 44.011679 91 41 C87.07243226 37.46518903 84.17967496 35.87021638 78.89575195 35.88647461 C78.07512772 35.88655014 77.25450348 35.88662567 76.40901184 35.88670349 C75.0870002 35.89444542 75.0870002 35.89444542 73.73828125 35.90234375 C72.37959175 35.90446617 72.37959175 35.90446617 70.99345398 35.90663147 C68.09976909 35.91222999 65.20616151 35.92478219 62.3125 35.9375 C60.35091258 35.94251519 58.38932394 35.94707807 56.42773438 35.95117188 C51.61843582 35.96134813 46.80930447 35.98092387 42 36 Z M42 99 C42 108.24 42 117.48 42 127 C48.13852822 127.06902968 54.27569894 127.12871659 60.41430664 127.16479492 C62.5006162 127.17984159 64.58689433 127.20028382 66.6730957 127.22631836 C69.67927831 127.26288295 72.68504112 127.2797679 75.69140625 127.29296875 C77.08088219 127.31619453 77.08088219 127.31619453 78.49842834 127.33988953 C85.65056972 127.34173034 90.40128703 126.26696237 95.9375 121.4375 C98.5053826 117.99653732 98.77065686 114.68405874 98.5546875 110.47265625 C97.6228165 106.31861159 95.34752045 103.5560243 92 101 C87.09781396 98.32375693 82.0946659 98.74624549 76.66796875 98.8046875 C75.67622147 98.8075174 74.68447418 98.81034729 73.66267395 98.81326294 C70.50415841 98.82443196 67.34592943 98.84953073 64.1875 98.875 C62.04232181 98.88503403 59.89713917 98.89415914 57.75195312 98.90234375 C52.50110363 98.92265651 47.25087151 98.96181184 42 99 Z " fill="#000000" transform="translate(22,591)"/>
<path d="M0 0 C107.64230769 0 107.64230769 0 126.0390625 17.78125 C138.34311131 31.7029626 140.15828066 46.37035489 139.22753906 64.30908203 C138.44289078 73.58847401 134.50821478 80.6910227 129 88 C128.4225 88.86625 127.845 89.7325 127.25 90.625 C123.66369818 94.41054081 119.33155344 97.12917076 115 100 C114.01 100.66 113.02 101.32 112 102 C111.01 102 110.02 102 109 102 C112.5019482 108.58726231 116.41328432 114.77754408 120.62109375 120.93359375 C121.24347427 121.85157242 121.8658548 122.76955109 122.50709534 123.71534729 C124.48035089 126.62515847 126.45845177 129.53162611 128.4375 132.4375 C130.41259326 135.34005779 132.38650077 138.24339313 134.35719299 141.14894104 C135.57779831 142.94838015 136.80088423 144.74614022 138.02696228 146.54185486 C141.89592102 152.2428947 145.51527734 158.05650886 149 164 C141.88424528 164.27981944 134.76991545 164.47189685 127.64990234 164.60424805 C125.23041786 164.65943495 122.81129811 164.73440762 120.39306641 164.82983398 C100.64976792 165.58919162 100.64976792 165.58919162 95.09960938 162.26049805 C93.37549229 159.93196774 92.16013721 157.64513743 90.99365234 154.99996948 C88.838257 150.66170677 85.84499751 146.78356474 83.09375 142.80859375 C81.83984528 140.94207034 80.5898953 139.07288461 79.34375 137.20117188 C76.75613226 133.31941453 74.16175928 129.4423301 71.5625 125.56835938 C70.32246656 123.71123797 69.08286694 121.8538268 67.84375 119.99609375 C67.25638062 119.12222519 66.66901123 118.24835663 66.06384277 117.3480072 C65.52908325 116.54279129 64.99432373 115.73757538 64.44335938 114.90795898 C63.97007202 114.19945297 63.49678467 113.49094696 63.00915527 112.76097107 C62 111 62 111 62 109 C55.73 109 49.46 109 43 109 C43 127.15 43 145.3 43 164 C28.81 164 14.62 164 0 164 C0 109.88 0 55.76 0 0 Z M43 40 C43 51.22 43 62.44 43 74 C50.6415625 74.061875 50.6415625 74.061875 58.4375 74.125 C60.02618896 74.14320801 61.61487793 74.16141602 63.25170898 74.18017578 C77.49235279 74.29336418 77.49235279 74.29336418 90 68 C90.86625 67.319375 90.86625 67.319375 91.75 66.625 C94.58954828 62.93358723 95.21697346 59.11119351 95 54.5625 C94.27028594 49.53086699 92.01681982 46.08863038 88 43 C82.46708663 40.15078135 78.17435523 39.58686348 72.00390625 39.70703125 C70.75358864 39.71339851 70.75358864 39.71339851 69.47801208 39.71989441 C66.83916689 39.73656686 64.20111084 39.77419642 61.5625 39.8125 C59.76368297 39.82756167 57.96485387 39.84124747 56.16601562 39.85351562 C51.77680177 39.8838698 47.38927478 39.94260997 43 40 Z " fill="#000000" transform="translate(1670,590)"/>
<path d="M0 0 C100.90317623 0 100.90317623 0 127.25 24.6875 C142.18128935 40.39570197 148.40529841 59.6752401 148.375 81.125 C148.37338867 82.31407959 148.37177734 83.50315918 148.37011719 84.72827148 C148.24021787 94.08675298 147.07260602 102.15688999 144 111 C143.72285156 111.89976562 143.44570313 112.79953125 143.16015625 113.7265625 C136.71551151 132.43682141 120.70873568 146.25085272 103.4375 154.75390625 C70.48156949 168.92353585 35.48218734 163 0 163 C0 109.21 0 55.42 0 0 Z M44 40 C44 67.39 44 94.78 44 123 C70.02193295 123.76993685 70.02193295 123.76993685 91 112 C100.15403904 102.49008039 102.43672844 90.63121528 102.2109375 77.85546875 C101.62766458 67.19453601 97.71215211 57.04873497 89.75 49.6875 C75.76847686 38.79240581 61.9871091 40 44 40 Z " fill="#000000" transform="translate(714,591)"/>
<path d="M0 0 C1.02814316 0.00222061 2.05628632 0.00444122 3.11558533 0.00672913 C4.27671341 0.00680466 5.43784149 0.00688019 6.63415527 0.00695801 C8.52943214 0.01469994 8.52943214 0.01469994 10.46299744 0.02259827 C12.39193092 0.02472069 12.39193092 0.02472069 14.35983276 0.02688599 C17.78427561 0.03071034 21.20867628 0.0405399 24.63310242 0.05158997 C28.12522308 0.06180587 31.61735053 0.06638399 35.10948181 0.07142639 C41.96561897 0.08216225 48.82172806 0.09923767 55.67784119 0.12025452 C56.0501033 1.14094276 56.0501033 1.14094276 56.42988586 2.18225098 C71.63747497 43.88506858 71.63747497 43.88506858 86.91282654 85.56309509 C87.98826924 88.48961629 89.06306414 91.41637484 90.13780212 94.34315491 C93.57786789 103.7078545 97.02691992 113.06912722 100.49215698 122.42454529 C102.18930982 127.00816776 103.88289814 131.5931033 105.5761261 136.17817688 C106.38798324 138.3734651 107.20161684 140.56809724 108.0171051 142.76203918 C109.1401221 145.78350699 110.25726638 148.80708526 111.37315369 151.83119202 C111.70966446 152.73176331 112.04617523 153.63233459 112.3928833 154.56019592 C112.69590866 155.38487366 112.99893402 156.20955139 113.31114197 157.05921936 C113.70935654 158.13325516 113.70935654 158.13325516 114.11561584 159.22898865 C114.67784119 161.12025452 114.67784119 161.12025452 114.67784119 164.12025452 C99.16784119 164.12025452 83.65784119 164.12025452 67.67784119 164.12025452 C61.98553349 150.45871606 61.98553349 150.45871606 59.86534119 144.05775452 C59.44639587 142.80865295 59.02745056 141.55955139 58.59580994 140.27259827 C57.67784119 137.12025452 57.67784119 137.12025452 57.67784119 134.12025452 C36.55784119 134.12025452 15.43784119 134.12025452 -6.32215881 134.12025452 C-6.98215881 137.09025452 -7.64215881 140.06025452 -8.32215881 143.12025452 C-10.63215881 150.05025452 -12.94215881 156.98025452 -15.32215881 164.12025452 C-30.83215881 164.12025452 -46.34215881 164.12025452 -62.32215881 164.12025452 C-60.42100618 157.14936154 -58.51218765 150.52442246 -55.97840881 143.81166077 C-55.4969062 142.51729347 -55.4969062 142.51729347 -55.00567627 141.19677734 C-54.31214137 139.33375506 -53.61649754 137.47151673 -52.91893005 135.61000061 C-50.99794742 130.48296163 -49.09307739 125.3499266 -47.18544006 120.21791077 C-46.78573502 119.14397064 -46.38602997 118.07003052 -45.97421265 116.96354675 C-41.99738972 106.2701117 -38.08562613 95.55329186 -34.18049622 84.83351135 C-27.3439888 66.0713381 -20.47046227 47.32287863 -13.5488739 28.5919342 C-12.65092695 26.16113404 -11.75392699 23.72998384 -10.8578949 21.29847717 C-9.6169707 17.93205273 -8.37245421 14.56697951 -7.12684631 11.20228577 C-6.75488632 10.19144424 -6.38292633 9.18060272 -5.99969482 8.13912964 C-5.65993118 7.22387009 -5.32016754 6.30861053 -4.97010803 5.36561584 C-4.52645401 4.16525444 -4.52645401 4.16525444 -4.07383728 2.94064331 C-2.99547016 0.32909129 -2.90229301 0.15029715 0 0 Z M25.67784119 39.12025452 C22.76461195 46.17029337 20.19020615 53.28799509 17.78721619 60.52650452 C17.43773926 61.57302185 17.08826233 62.61953918 16.72819519 63.69776917 C15.99737188 65.88888793 15.26804 68.08050467 14.54014587 70.27259827 C13.4212793 73.64000356 12.2959515 77.00520284 11.17002869 80.37025452 C10.4587059 82.50554287 9.74775485 84.64095511 9.03721619 86.77650452 C8.69978394 87.78475281 8.36235168 88.7930011 8.01469421 89.83180237 C7.70727295 90.76037048 7.39985168 91.6889386 7.08311462 92.64564514 C6.81094116 93.46375671 6.5387677 94.28186829 6.25834656 95.12477112 C5.58473118 97.09395189 5.58473118 97.09395189 5.67784119 99.12025452 C18.87784119 99.12025452 32.07784119 99.12025452 45.67784119 99.12025452 C43.72240478 91.95032102 41.71028245 84.89762271 39.39268494 77.85072327 C39.0909285 76.9260878 38.78917206 76.00145233 38.47827148 75.04879761 C37.52645348 72.13429486 36.57094917 69.22101651 35.61534119 66.30775452 C34.97122018 64.33713008 34.32733806 62.36642755 33.68370056 60.39564514 C30.20576475 49.74970343 30.20576475 49.74970343 26.67784119 39.12025452 C26.34784119 39.12025452 26.01784119 39.12025452 25.67784119 39.12025452 Z " fill="#000000" transform="translate(1507.3221588134766,589.8797454833984)"/>
<path d="M0 0 C1.02814316 0.00222061 2.05628632 0.00444122 3.11558533 0.00672913 C4.27671341 0.00680466 5.43784149 0.00688019 6.63415527 0.00695801 C8.52943214 0.01469994 8.52943214 0.01469994 10.46299744 0.02259827 C12.39193092 0.02472069 12.39193092 0.02472069 14.35983276 0.02688599 C17.78427561 0.03071034 21.20867628 0.0405399 24.63310242 0.05158997 C28.12522308 0.06180587 31.61735053 0.06638399 35.10948181 0.07142639 C41.96561897 0.08216225 48.82172806 0.09923767 55.67784119 0.12025452 C56.0501033 1.14094276 56.0501033 1.14094276 56.42988586 2.18225098 C71.63747497 43.88506858 71.63747497 43.88506858 86.91282654 85.56309509 C87.98826924 88.48961629 89.06306414 91.41637484 90.13780212 94.34315491 C93.57786789 103.7078545 97.02691992 113.06912722 100.49215698 122.42454529 C102.18930982 127.00816776 103.88289814 131.5931033 105.5761261 136.17817688 C106.38798324 138.3734651 107.20161684 140.56809724 108.0171051 142.76203918 C109.1401221 145.78350699 110.25726638 148.80708526 111.37315369 151.83119202 C111.70966446 152.73176331 112.04617523 153.63233459 112.3928833 154.56019592 C112.69590866 155.38487366 112.99893402 156.20955139 113.31114197 157.05921936 C113.70935654 158.13325516 113.70935654 158.13325516 114.11561584 159.22898865 C114.67784119 161.12025452 114.67784119 161.12025452 114.67784119 164.12025452 C99.16784119 164.12025452 83.65784119 164.12025452 67.67784119 164.12025452 C61.98553349 150.45871606 61.98553349 150.45871606 59.86534119 144.05775452 C59.44639587 142.80865295 59.02745056 141.55955139 58.59580994 140.27259827 C57.67784119 137.12025452 57.67784119 137.12025452 57.67784119 134.12025452 C36.55784119 134.12025452 15.43784119 134.12025452 -6.32215881 134.12025452 C-6.98215881 137.09025452 -7.64215881 140.06025452 -8.32215881 143.12025452 C-10.63215881 150.05025452 -12.94215881 156.98025452 -15.32215881 164.12025452 C-30.83215881 164.12025452 -46.34215881 164.12025452 -62.32215881 164.12025452 C-60.42100618 157.14936154 -58.51218765 150.52442246 -55.97840881 143.81166077 C-55.4969062 142.51729347 -55.4969062 142.51729347 -55.00567627 141.19677734 C-54.31214137 139.33375506 -53.61649754 137.47151673 -52.91893005 135.61000061 C-50.99794742 130.48296163 -49.09307739 125.3499266 -47.18544006 120.21791077 C-46.78573502 119.14397064 -46.38602997 118.07003052 -45.97421265 116.96354675 C-41.99738972 106.2701117 -38.08562613 95.55329186 -34.18049622 84.83351135 C-27.3439888 66.0713381 -20.47046227 47.32287863 -13.5488739 28.5919342 C-12.65092695 26.16113404 -11.75392699 23.72998384 -10.8578949 21.29847717 C-9.6169707 17.93205273 -8.37245421 14.56697951 -7.12684631 11.20228577 C-6.75488632 10.19144424 -6.38292633 9.18060272 -5.99969482 8.13912964 C-5.65993118 7.22387009 -5.32016754 6.30861053 -4.97010803 5.36561584 C-4.52645401 4.16525444 -4.52645401 4.16525444 -4.07383728 2.94064331 C-2.99547016 0.32909129 -2.90229301 0.15029715 0 0 Z M25.67784119 39.12025452 C22.76461195 46.17029337 20.19020615 53.28799509 17.78721619 60.52650452 C17.43773926 61.57302185 17.08826233 62.61953918 16.72819519 63.69776917 C15.99737188 65.88888793 15.26804 68.08050467 14.54014587 70.27259827 C13.4212793 73.64000356 12.2959515 77.00520284 11.17002869 80.37025452 C10.4587059 82.50554287 9.74775485 84.64095511 9.03721619 86.77650452 C8.69978394 87.78475281 8.36235168 88.7930011 8.01469421 89.83180237 C7.70727295 90.76037048 7.39985168 91.6889386 7.08311462 92.64564514 C6.81094116 93.46375671 6.5387677 94.28186829 6.25834656 95.12477112 C5.58473118 97.09395189 5.58473118 97.09395189 5.67784119 99.12025452 C18.87784119 99.12025452 32.07784119 99.12025452 45.67784119 99.12025452 C43.72240478 91.95032102 41.71028245 84.89762271 39.39268494 77.85072327 C39.0909285 76.9260878 38.78917206 76.00145233 38.47827148 75.04879761 C37.52645348 72.13429486 36.57094917 69.22101651 35.61534119 66.30775452 C34.97122018 64.33713008 34.32733806 62.36642755 33.68370056 60.39564514 C30.20576475 49.74970343 30.20576475 49.74970343 26.67784119 39.12025452 C26.34784119 39.12025452 26.01784119 39.12025452 25.67784119 39.12025452 Z " fill="#000000" transform="translate(953.3221588134766,589.8797454833984)"/>
<path d="M0 0 C14.52 0 29.04 0 44 0 C44.04898438 6.34605469 44.09796875 12.69210937 44.1484375 19.23046875 C44.18386107 23.27280152 44.21984232 27.31511418 44.2578125 31.35742188 C44.31790658 37.76063009 44.37603775 44.16381046 44.421875 50.56713867 C44.4589978 55.73492829 44.5054276 60.90256117 44.55806351 66.07021523 C44.57646511 68.03274066 44.59162437 69.9952995 44.60334396 71.95787621 C43.91097968 95.02114228 43.91097968 95.02114228 53.82421875 114.84375 C62.25072529 121.59819925 72.0096519 123.73686207 82.7109375 122.75 C90.79818033 121.35650585 97.51429612 118.60824878 102.68359375 112.05859375 C108.14800631 103.51335512 109.13889909 94.58507617 109.20532227 84.68994141 C109.21522186 83.77222961 109.22512146 82.85451782 109.23532104 81.90899658 C109.26678959 78.88987771 109.29163534 75.87074313 109.31640625 72.8515625 C109.33698843 70.75263064 109.35798523 68.6537028 109.37937927 66.55477905 C109.43446936 61.04094716 109.48393608 55.52707867 109.53222656 50.01318359 C109.59138884 43.39177972 109.65754471 36.77044246 109.72252655 30.14909363 C109.82037162 20.09943657 109.90934019 10.04973601 110 0 C124.52 0 139.04 0 154 0 C154.09072916 13.4139579 154.16396209 26.82770866 154.20724869 40.24190521 C154.22803451 46.47209669 154.25618625 52.70206552 154.30175781 58.93212891 C154.34553836 64.95572569 154.36920465 70.97910966 154.37950897 77.00285339 C154.3868429 79.28951868 154.40116257 81.57617365 154.42292023 83.86274719 C154.64872614 108.5996223 150.51644074 128.47361341 133.01953125 147.109375 C117.46986365 162.16308698 95.61082209 167.11528057 74.56640625 167.03515625 C53.1058852 166.47253003 32.79332209 159.13221804 17.640625 143.578125 C8.98656968 133.76245151 3.63483495 121.78908351 1 109 C0.82686783 108.16822235 0.65373566 107.3364447 0.47535706 106.47946167 C-0.14726911 101.92203722 -0.13106785 97.45790345 -0.11352539 92.86376953 C-0.11367142 91.8582756 -0.11381744 90.85278168 -0.1139679 89.81681824 C-0.11327327 86.50546077 -0.10550194 83.1941601 -0.09765625 79.8828125 C-0.09579047 77.58210277 -0.09436732 75.28139264 -0.09336853 72.98068237 C-0.08955594 66.93415219 -0.07973639 60.88764615 -0.06866455 54.84112549 C-0.05842338 48.66752448 -0.05386511 42.49391956 -0.04882812 36.3203125 C-0.038113 24.21352937 -0.02052637 12.10677047 0 0 Z " fill="#000000" transform="translate(214,591)"/>
<path d="M0 0 C38.94 0 77.88 0 118 0 C118 12.87 118 25.74 118 39 C93.25 39 68.5 39 43 39 C43 47.58 43 56.16 43 65 C59.5 65 76 65 93 65 C93 76.88 93 88.76 93 101 C76.5 101 60 101 43 101 C43 109.25 43 117.5 43 126 C69.73 126 96.46 126 124 126 C124 138.54 124 151.08 124 164 C83.08 164 42.16 164 0 164 C0 109.88 0 55.76 0 0 Z " fill="#000000" transform="translate(1868,590)"/>
<path d="M0 0 C39.93 0 79.86 0 121 0 C121 13.53 121 27.06 121 41 C95.59 41 70.18 41 44 41 C44 49.58 44 58.16 44 67 C61.82 67 79.64 67 98 67 C98 79.87 98 92.74 98 106 C80.18 106 62.36 106 44 106 C44 124.81 44 143.62 44 163 C29.48 163 14.96 163 0 163 C0 109.21 0 55.42 0 0 Z " fill="#000000" transform="translate(1117,591)"/>
<path d="M0 0 C14.52 0 29.04 0 44 0 C44 39.6 44 79.2 44 120 C70.07 120 96.14 120 123 120 C123 134.19 123 148.38 123 163 C82.41 163 41.82 163 0 163 C0 109.21 0 55.42 0 0 Z " fill="#000000" transform="translate(1287,591)"/>
<path d="M0 0 C14.52 0 29.04 0 44 0 C44 39.6 44 79.2 44 120 C70.07 120 96.14 120 123 120 C123 134.19 123 148.38 123 163 C82.41 163 41.82 163 0 163 C0 109.21 0 55.42 0 0 Z " fill="#000000" transform="translate(539,591)"/>
<path d="M0 0 C14.52 0 29.04 0 44 0 C44 53.79 44 107.58 44 163 C29.48 163 14.96 163 0 163 C0 109.21 0 55.42 0 0 Z " fill="#000000" transform="translate(430,591)"/>
</svg>
