<?xml version="1.0" encoding="UTF-8"?>
<svg version="1.1" xmlns="http://www.w3.org/2000/svg" width="1908" height="1570">
<path d="M0 0 C0.97066406 0.78632812 1.94132812 1.57265625 2.94140625 2.3828125 C10.80870243 8.85092348 18.09676496 15.88346542 25.3125 23.0625 C26.2312793 23.97209473 27.15005859 24.88168945 28.09667969 25.81884766 C34.15631486 31.90583762 39.67808868 38.26235816 45 45 C45.91688599 46.14384155 45.91688599 46.14384155 46.85229492 47.31079102 C74.45762125 81.84363074 95.32818503 121.13829248 111.8125 162.0625 C112.23934082 163.12122314 112.66618164 164.17994629 113.10595703 165.27075195 C116 172.61273129 116 172.61273129 116 176 C117.54095337 175.45811035 117.54095337 175.45811035 119.11303711 174.90527344 C209.97334582 143.04377922 304.27736847 121.67965876 413 114 C413.71068634 113.95869965 414.42137268 113.91739929 415.15359497 113.87484741 C432.78402186 112.85855485 450.40954299 112.79843644 468.0625 112.8125 C469.18988712 112.81290031 469.18988712 112.81290031 470.34004974 112.81330872 C492.86871911 112.82333846 515.33881072 112.96403385 537.80456543 114.81964111 C540.13129659 115.01078625 542.45863803 115.19291469 544.78613281 115.37451172 C637.1253307 122.68786977 728.65951505 142.76873265 822.08837891 176.51245117 C822.97831543 176.84607666 823.86825195 177.17970215 824.78515625 177.5234375 C825.53676025 177.81138184 826.28836426 178.09932617 827.06274414 178.39599609 C829.13913202 179.14882577 829.13913202 179.14882577 832 179 C832.32572998 178.17201904 832.65145996 177.34403809 832.98706055 176.4909668 C851.18244729 130.4486721 873.3376921 84.26904605 909.5625 49.4375 C911.24188446 47.80742138 911.24188446 47.80742138 913.4375 45 C915.99663501 42.0039395 918.66609616 39.57369208 921.66015625 37.03125 C924.34709701 34.69868039 926.91310683 32.25548188 929.5 29.8125 C956.1297846 5.10683278 1008.93783569 -33 1046 -33 C1042.6903182 -19.08109408 1038.73134425 -5.36395374 1034.75 8.375 C1034.19544468 10.29386979 1033.64089187 12.21274032 1033.08648109 14.13165188 C1023.03111037 48.92704566 1012.82773046 83.67956283 1002.63262939 118.4342041 C1000.98505028 124.05076236 999.3379661 129.6674657 997.69091797 135.28417969 C983.28554126 184.4072976 968.85357155 233.52257997 954.40347672 282.63256073 C950.79042187 294.91195093 947.17946504 307.19195606 943.57025528 319.47247696 C933.05172172 355.26169435 922.51479988 391.04533417 911.9368515 426.81703949 C911.66894051 427.72304146 911.40102951 428.62904343 911.125 429.5625 C910.857089 430.46850197 910.58917801 431.37450394 910.3131485 432.30796051 C902.50914351 458.7000636 894.73019419 485.09938432 886.98395348 511.50850201 C885.29550188 517.26456737 883.60546937 523.02016518 881.91394615 528.77532864 C880.5162258 533.53102553 879.11924731 538.28694011 877.72265625 543.04296875 C877.44674526 543.98255243 877.17083427 544.92213612 876.88656235 545.89019203 C873.15929065 558.58777427 869.46202035 571.2937413 865.7882843 584.00691223 C863.80654895 590.86374053 861.81515154 597.71775172 859.82135677 604.57108212 C858.47862636 609.1891024 857.14126499 613.80852301 855.81735229 618.43197632 C845.52111307 654.37198683 845.52111307 654.37198683 837 671 C836.49307617 672.04961914 835.98615234 673.09923828 835.46386719 674.18066406 C834.24688081 676.68717242 832.98698165 679.16045688 831.6875 681.625 C831.23584473 682.48343506 830.78418945 683.34187012 830.31884766 684.22631836 C818.65049376 705.95697744 803.11776542 725.50224657 786.37304688 743.50927734 C784.15590942 745.91643263 781.99082103 748.3702413 779.8125 750.8125 C776.44417531 754.51924349 773.00876563 757.91824088 769.17578125 761.13671875 C767.00243272 762.99791668 764.91453049 764.93590375 762.82885742 766.89428711 C756.23234462 773.06384803 749.28630784 778.66510074 742 784 C741.35933594 784.47050781 740.71867187 784.94101562 740.05859375 785.42578125 C706.78683106 809.72250198 669.64538841 828.47461484 629.5 838.1875 C628.54754395 838.4256543 627.59508789 838.66380859 626.61376953 838.90917969 C604.74615062 843.95092982 582.28917987 844.49469727 559.95358734 844.70998929 C555.99949811 844.75116565 552.04562819 844.80819552 548.09170932 844.86304653 C541.18753186 844.95672038 534.2832919 845.04065742 527.37891197 845.11791229 C517.10842398 845.23287784 506.83817293 845.36339433 496.56791141 845.49690959 C479.26448708 845.721425 461.96093225 845.9335826 444.65726662 846.13858414 C427.48837177 846.34203181 410.31956023 846.55111074 393.15082359 846.76751328 C392.07856615 846.7810254 391.0063087 846.79453752 389.90155861 846.80845911 C384.45338699 846.8771434 379.00521663 846.94592646 373.55704673 847.01474749 C334.9863207 847.50179383 296.41545159 847.97648654 257.84448242 848.44384766 C220.58463867 848.89535144 183.32486859 849.35230928 146.06518555 849.81689453 C144.92112145 849.83115745 143.77705735 849.84542037 142.59832465 849.86011549 C131.09948424 850.00347652 119.60064527 850.14695274 108.10180738 850.29051536 C84.47508059 850.5854936 60.84834476 850.87974482 37.22160339 851.17355347 C36.12974767 851.18713228 35.03789194 851.20071109 33.91294968 851.21470137 C0.83009367 851.62609771 -32.25280175 852.03419646 -65.33573914 852.43899536 C-66.34853152 852.4513886 -67.3613239 852.46378183 -68.40480696 852.47655062 C-86.71911043 852.70063879 -105.03341742 852.92443841 -123.34773445 853.14741516 C-124.21677103 853.15799659 -125.0858076 853.16857801 -125.98117862 853.17948008 C-129.43404462 853.22151975 -132.88691065 853.26355726 -136.33977713 853.30555728 C-145.45963177 853.41648982 -154.5794803 853.5278751 -163.69931066 853.64078736 C-166.92606292 853.68070002 -170.15281548 853.72058837 -173.3795681 853.76047134 C-174.17441473 853.77030673 -174.96926136 853.78014211 -175.78819426 853.79027553 C-186.00533041 853.91653482 -196.2225097 854.03803951 -206.43976335 854.1544118 C-213.65587708 854.23664474 -220.87196225 854.32113346 -228.08803261 854.40708711 C-232.35410214 854.45776366 -236.62017704 854.50726371 -240.88629635 854.5535766 C-250.58839633 854.65947546 -260.28951217 854.79141402 -269.99063289 854.96570752 C-271.97503541 854.99957395 -273.95953739 855.0274392 -275.94403432 855.05522791 C-279.54883108 855.11046334 -283.1520426 855.19148653 -286.75612164 855.28131294 C-287.79093272 855.29351478 -288.82574381 855.30571661 -289.89191281 855.3182882 C-297.61023751 855.55699832 -302.84693103 857.40747662 -308.8125 862.3125 C-313.40025797 867.94888836 -314.67220575 872.94183965 -314 880 C-312.28271412 884.69994029 -310.13393334 887.20959499 -306 890 C-295.6838274 893.4387242 -282.3702792 892.17298897 -271.60486603 892.28645897 C-270.11998688 892.30513442 -268.63511216 892.32416428 -267.15024161 892.34351099 C-263.10189836 892.39525529 -259.05351131 892.44205189 -255.00509862 892.48799339 C-250.58837933 892.53902482 -246.17171939 892.59479531 -241.75505018 892.64996302 C-234.02451482 892.74589288 -226.29394865 892.83889624 -218.56335449 892.92996025 C-207.0670669 893.06541434 -195.57083968 893.20554907 -184.07462133 893.3467447 C-165.91274376 893.56973514 -147.75083453 893.79000833 -129.58890133 894.00841764 C-100.75112058 894.35525161 -71.91343957 894.70987469 -43.07578524 895.06705031 C-33.21536355 895.18915696 -23.3549397 895.31108991 -13.49451618 895.43304847 C-11.00430024 895.46384883 -8.51408432 895.49465112 -6.02386843 895.52545536 C23.32716913 895.88851465 52.6782268 896.24993096 82.02929688 896.61035156 C83.31317656 896.62611967 84.59705625 896.64188777 85.91984139 896.6581337 C127.55065686 897.16937634 169.18155137 897.67388207 210.81248095 898.17573625 C253.64294141 898.6921032 296.47328266 899.21752617 339.30350312 899.75344414 C345.35590368 899.82916622 351.40830567 899.90477352 357.46070862 899.98030472 C358.65178848 899.9951706 359.84286833 900.01003649 361.07004152 900.02535286 C380.21145704 900.2639689 399.35297679 900.49288672 418.49455542 900.71799588 C437.74278912 900.94453326 456.99088407 901.18077281 476.23887771 901.42687677 C487.66269073 901.57263567 499.0865364 901.71089517 510.5105697 901.8382517 C518.15561305 901.92422524 525.80049168 902.02012261 533.44531469 902.12384378 C537.7917324 902.18253452 542.13808556 902.23713264 546.48469537 902.27952616 C588.76564841 902.69906471 629.36408218 906.99205275 663 935 C663.87269531 935.70769531 664.74539063 936.41539062 665.64453125 937.14453125 C690.91893205 958.59792027 703.27589166 991.71736639 706 1024 C706.94157309 1041.39710274 705.66420524 1058.34120246 701.765625 1075.3046875 C701.54564346 1076.26406723 701.32566193 1077.22344696 701.09901428 1078.2118988 C698.83881524 1087.91562886 696.22066013 1097.49724802 693.4375 1107.0625 C693.03241211 1108.46221039 693.03241211 1108.46221039 692.61914062 1109.89019775 C685.09682384 1135.7874301 676.54301216 1161.3592277 668.01841831 1186.93938541 C666.43334521 1191.69630939 664.85260916 1196.45465712 663.27441406 1201.21386719 C654.65938054 1227.19154721 646.02016712 1253.16021887 637.12774658 1279.04455566 C631.87456566 1294.33980513 626.75893533 1309.68012692 621.65637207 1325.02610016 C614.16270048 1347.56172872 606.61252331 1370.07579654 598.88134766 1392.53125 C597.52359878 1396.475451 596.16975753 1400.4209733 594.81787109 1404.3671875 C586.40176453 1428.93070029 577.92457778 1453.46823496 569.0625 1477.875 C568.72929749 1478.79519928 568.39609497 1479.71539856 568.05279541 1480.66348267 C567.11346616 1483.25371604 566.16916232 1485.84206913 565.22265625 1488.4296875 C564.95368027 1489.17094376 564.68470428 1489.91220001 564.40757751 1490.67591858 C562.48958816 1495.88680313 560.30690574 1500.949938 558 1506 C535.10234743 1508.31433792 512.25100643 1508.35949574 489.26081848 1508.31785583 C486.15178302 1508.31243776 483.04275515 1508.31005425 479.93371582 1508.3079834 C448.87726599 1508.27576113 417.99224482 1507.66640891 387.01806641 1505.23431396 C383.87594202 1504.9903685 380.73310021 1504.75866018 377.58984375 1504.52978516 C293.91229315 1498.413083 213.31043865 1482.22818617 -31 1377 C-32.95180299 1375.83590409 -34.90362602 1374.67184178 -36.85546875 1373.5078125 C-62.51357773 1358.1245135 -87.25984052 1341.20362527 -111 1323 C-112.10239014 1322.15671143 -112.10239014 1322.15671143 -113.22705078 1321.29638672 C-122.01456848 1314.56121079 -130.66971333 1307.71729995 -139.06640625 1300.5 C-141.79611025 1298.17375425 -144.57308751 1295.92573847 -147.375 1293.6875 C-152.64826087 1289.402493 -157.59381939 1284.80695987 -162.52294922 1280.13549805 C-165.52934168 1277.28843053 -168.56099531 1274.49897919 -171.70410156 1271.80297852 C-176.11914771 1267.94954271 -180.27341927 1263.87095583 -184.41015625 1259.72265625 C-185.18129257 1258.95247665 -185.95242889 1258.18229706 -186.74693298 1257.38877869 C-188.36580153 1255.77058627 -189.98342551 1254.15114788 -191.59985352 1252.53051758 C-194.05568718 1250.06932768 -196.51681365 1247.61352191 -198.97851562 1245.15820312 C-200.56021653 1243.57584133 -202.14160717 1241.99316933 -203.72265625 1240.41015625 C-204.81200218 1239.32384666 -204.81200218 1239.32384666 -205.9233551 1238.21559143 C-209.9428762 1234.17782402 -213.79499006 1230.04779741 -217.51026917 1225.72784424 C-219.57730515 1223.33042039 -221.72716778 1221.0125103 -223.875 1218.6875 C-228.32186477 1213.80663191 -232.52428901 1208.77624476 -236.66748047 1203.63720703 C-238.18221604 1201.77611932 -239.71671785 1199.93242794 -241.25390625 1198.08984375 C-249.15084397 1188.61110184 -256.71056039 1178.95238887 -264 1169 C-264.51385254 1168.30326172 -265.02770508 1167.60652344 -265.55712891 1166.88867188 C-274.42878292 1154.84876492 -282.83212812 1142.52694117 -291 1130 C-291.50885742 1129.22076172 -292.01771484 1128.44152344 -292.54199219 1127.63867188 C-306.29081957 1106.48523541 -318.58562259 1084.48906712 -330 1062 C-330.38236816 1061.25041016 -330.76473633 1060.50082031 -331.15869141 1059.72851562 C-333.15984632 1055.80042321 -335.13177902 1051.85950683 -337.06884766 1047.89941406 C-337.69703646 1046.61800113 -338.32963073 1045.33873977 -338.96630859 1044.06152344 C-345.26808392 1031.395362 -350.26043042 1018.32095122 -355 1005 C-355.34562988 1004.03175293 -355.69125977 1003.06350586 -356.04736328 1002.06591797 C-371.71119266 957.76137325 -380.7876569 910.86038998 -384 864 C-384.08757568 862.74131104 -384.17515137 861.48262207 -384.26538086 860.18579102 C-385.08504502 847.56354479 -385.20068363 834.95816528 -385.1875 822.3125 C-385.18689575 821.23596161 -385.1862915 820.15942322 -385.18566895 819.05026245 C-385.15871874 801.28827272 -384.71187509 783.69092652 -383 766 C-382.93683594 765.34310181 -382.87367188 764.68620361 -382.80859375 764.00939941 C-374.68075457 680.31556526 -351.66546437 593.04709479 -307.16796875 521.03515625 C-305.83408281 519.101975 -305.83408281 519.101975 -306 517 C-306.76699219 516.58492187 -307.53398437 516.16984375 -308.32421875 515.7421875 C-331.78104684 502.71969757 -354.01388819 486.89286585 -374 469 C-375.43279297 467.73349609 -375.43279297 467.73349609 -376.89453125 466.44140625 C-389.7713517 454.86812166 -402.44753727 442.75294969 -413 429 C-414.07216724 427.66501644 -415.14658358 426.33183757 -416.22265625 425 C-424.657383 414.4816187 -432.16406439 403.61995688 -439 392 C-439.49741699 391.1548584 -439.99483398 390.3097168 -440.50732422 389.43896484 C-482.03065377 318.01030125 -488.54124297 233.16638874 -467.8125 154.125 C-454.92219525 107.00515774 -433.11086921 61.45205673 -399 26 C-398.47470703 25.45279297 -397.94941406 24.90558594 -397.40820312 24.34179688 C-391.46674283 18.18839388 -385.49042739 12.27617887 -378.68359375 7.0703125 C-376.67202857 5.51844999 -374.72467051 3.94209496 -372.78515625 2.3046875 C-294.58655466 -63.1578439 -173.16988358 -78.61423677 0 0 Z " fill="#F4801F" transform="translate(479,62)"/>
<path d="M0 0 C44.55839547 -0.64148299 44.55839547 -0.64148299 63 3 C64.00530762 3.19335938 65.01061523 3.38671875 66.04638672 3.5859375 C124.78547448 15.20288512 175.56754601 45.78386583 218.9375 86.25 C219.98502441 87.22453125 219.98502441 87.22453125 221.05371094 88.21875 C225.08765105 92.02632513 228.82898403 95.97556707 232.4387207 100.18701172 C234.43276615 102.50253659 236.53018864 104.71315083 238.625 106.9375 C256.168481 126.27760255 271.16053872 148.75957601 283 172 C283.4738916 172.9286084 283.9477832 173.8572168 284.43603516 174.81396484 C318.65703026 242.54187329 328.38488993 319.54728012 305.23046875 392.45703125 C292.03361947 432.12987571 270.06609979 468.83297755 241.48046875 499.3359375 C239.44923951 501.51750969 237.49198434 503.7294688 235.5625 506 C229.0396598 513.51067417 221.86123535 520.62236672 214.27734375 527.05859375 C212.45476399 528.61231955 210.66325461 530.18829953 208.87890625 531.78515625 C188.99409545 549.47278081 166.95137825 565.51397117 144 579 C144.36798706 579.84087158 144.36798706 579.84087158 144.7434082 580.69873047 C147.35867471 586.68045064 149.95791675 592.66897057 152.55029297 598.66064453 C153.92115854 601.81839112 155.30560464 604.96988151 156.69140625 608.12109375 C164.38340119 625.76941814 170.88039966 643.75857993 177 662 C177.22643188 662.67351501 177.45286377 663.34703003 177.68615723 664.04095459 C202.00471699 736.58696957 213.12093115 813.6743464 209.25 890.125 C209.18614609 891.4029393 209.18614609 891.4029393 209.1210022 892.70669556 C204.49413418 982.79036642 178.05633363 1070.46748384 89.25 1214.75 C88.36610596 1215.88598633 88.36610596 1215.88598633 87.46435547 1217.04492188 C82.35652048 1223.58665455 77.14118903 1230.03674415 71.88671875 1236.4609375 C69.5424399 1239.32743042 67.23286765 1242.21911188 64.9375 1245.125 C57.69892507 1254.19612554 50.04420817 1262.94548005 42.23046875 1271.5234375 C40.34831667 1273.61325259 38.49494168 1275.72258248 36.6484375 1277.84375 C27.05350718 1288.82434509 16.85723179 1299.24158177 6.5625 1309.5625 C5.63945068 1310.4901416 4.71640137 1311.4177832 3.76538086 1312.37353516 C-0.76301885 1316.89169426 -5.34183164 1321.27677734 -10.19702148 1325.44213867 C-12.97483755 1327.84230716 -15.63536299 1330.36391647 -18.3125 1332.875 C-23.13101711 1337.35742274 -28.07182933 1341.6143573 -33.20703125 1345.734375 C-35.70265864 1347.75880001 -38.14687527 1349.83252387 -40.58056641 1351.93066406 C-47.7471622 1358.09337026 -55.20847039 1363.78714354 -62.81835938 1369.38916016 C-65.08947243 1371.06606302 -67.3499818 1372.75656456 -69.609375 1374.44921875 C-106.05713557 1401.66670229 -145.51824404 1424.38228939 -186 1445 C-187.07652832 1445.55187988 -188.15305664 1446.10375977 -189.26220703 1446.67236328 C-242.69983244 1474.03730393 -299.0922423 1495.52837177 -355.74139404 1515.21484375 C-357.17596948 1515.71354334 -358.61014083 1516.21340808 -360.04376221 1516.71484375 C-396.30077279 1529.39570163 -442.18407226 1543.58432358 -481 1542 C-480.36114466 1536.34433469 -478.98036032 1531.17756261 -477.28125 1525.75390625 C-476.9961557 1524.82917007 -476.7110614 1523.9044339 -476.41732788 1522.95167542 C-475.45020253 1519.82027769 -474.47517673 1516.69139899 -473.5 1513.5625 C-472.7940948 1511.2844474 -472.08853995 1509.00628622 -471.38330078 1506.72802734 C-469.15639735 1499.54263485 -466.91885162 1492.3605878 -464.67939758 1485.17910004 C-463.98466355 1482.95080986 -463.29030823 1480.72240201 -462.59606934 1478.49395752 C-447.92844891 1431.41258456 -433.15956276 1384.36304891 -418.36004639 1337.32299805 C-407.30399134 1302.18112814 -396.25017867 1267.03853246 -385.24932861 1231.8793335 C-384.38841289 1229.1278788 -383.52687266 1226.37662102 -382.66473389 1223.62554932 C-375.32817102 1200.99721937 -375.32817102 1200.99721937 -369.05688477 1178.06469727 C-368.01302144 1173.83946956 -366.57016295 1169.82188525 -365.0234375 1165.7578125 C-364.73449615 1164.99056854 -364.44555481 1164.22332458 -364.14785767 1163.43283081 C-363.53651197 1161.8134262 -362.92289866 1160.194876 -362.30712891 1158.57714844 C-361.39159366 1156.16865289 -360.48631399 1153.75648908 -359.58203125 1151.34375 C-354.1973436 1137.07432318 -348.37043756 1122.90944248 -341.1875 1109.4375 C-340.77209961 1108.65632813 -340.35669922 1107.87515625 -339.92871094 1107.0703125 C-330.19281504 1089.06726676 -318.24300458 1071.19332106 -304.16015625 1056.30078125 C-302.36318427 1054.38682736 -300.65621009 1052.43815998 -298.94921875 1050.4453125 C-294.59148663 1045.44771085 -289.93638987 1040.75032256 -285.24951172 1036.06420898 C-283.76106763 1034.57358385 -282.28082723 1033.07512983 -280.80078125 1031.57617188 C-274.52925912 1025.26731229 -267.99619822 1019.51076775 -261 1014 C-260.24912109 1013.39518799 -259.49824219 1012.79037598 -258.72460938 1012.16723633 C-224.30370781 984.45369538 -184.40438756 963.51134191 -141.5 952.5625 C-140.63125244 952.33973389 -139.76250488 952.11696777 -138.86743164 951.88745117 C-120.59270039 947.51627156 -101.99013075 946.25428789 -83.28730297 945.1868453 C-79.80770516 944.98627563 -76.32874219 944.77516487 -72.84967041 944.56570435 C-64.65685194 944.07480539 -56.46308748 943.60097684 -48.2690773 943.1304493 C-45.26747258 942.95788699 -42.26592549 942.78433394 -39.26437807 942.61077809 C-23.47889346 941.69818487 -7.69272444 940.7976372 8.09375 939.90234375 C9.21066711 939.83897866 9.21066711 939.83897866 10.3501482 939.77433348 C18.78338296 939.29602959 27.21676065 938.8204067 35.65039062 938.34912109 C42.54963921 937.96354476 49.44860545 937.57327254 56.34729171 937.17775929 C60.63221213 936.93233265 64.91738847 936.69238777 69.20286417 936.45686698 C72.46399925 936.27589195 75.72463288 936.0862558 78.98535156 935.89794922 C80.70541916 935.80595245 80.70541916 935.80595245 82.4602356 935.71209717 C99.03381784 935.01628446 99.03381784 935.01628446 113 927 C116.54285808 922.43941034 117.61565083 917.82518771 117.3203125 912.10546875 C116.65709127 907.74600234 114.87178929 904.95104286 111.9375 901.75 C103.19013331 896.53880282 91.31216107 897.35306964 81.38330078 896.79492188 C79.61130702 896.6901119 77.83935044 896.58467163 76.06742859 896.47865295 C72.26622851 896.2525413 68.46480796 896.03080572 64.66315079 895.81251526 C58.63273814 895.4661729 52.60295151 895.10966946 46.57321167 894.75183105 C35.93159956 894.12158797 25.28950151 893.49988416 14.64727783 892.88006592 C-1.33287041 891.94927894 -17.31261015 891.01156149 -33.29190266 890.06619883 C-39.26558146 889.71310144 -45.23949102 889.36432083 -51.2136333 889.01915741 C-54.95901155 888.8019902 -58.70418396 888.58141281 -62.44931602 888.36004448 C-64.1630502 888.25945085 -65.8768657 888.16022991 -67.59077263 888.06262398 C-76.68094056 887.54421302 -85.74177207 886.88628467 -94.80300903 885.9876709 C-95.63320647 885.90543919 -96.46340391 885.82320748 -97.31875885 885.73848391 C-103.29361185 885.12334801 -109.15104853 884.26512269 -115 882.875 C-115.90169922 882.66399658 -116.80339844 882.45299316 -117.73242188 882.2355957 C-150.63340792 874.09357744 -179.04464158 854.64725284 -196.8671875 825.6640625 C-218.1182983 789.87573819 -219.00846018 746.71192092 -208.96020508 707.22412109 C-208.65565053 706.01864309 -208.35109598 704.81316509 -208.03731251 703.57115746 C-204.66511906 690.41436426 -200.85173563 677.38734542 -196.99714088 664.36545944 C-194.67147045 656.50776221 -192.3710767 648.64262477 -190.06787109 640.77832031 C-189.70198716 639.5298767 -189.70198716 639.5298767 -189.32871163 638.256212 C-183.47259358 618.269486 -177.74360544 598.24672152 -172.02960062 578.21898174 C-171.20466648 575.32764918 -170.379438 572.43640076 -169.55413437 569.54517365 C-165.91936218 556.81102095 -162.28820215 544.07583974 -158.6578598 531.34042358 C-153.90601871 514.67151929 -149.15163039 498.00334195 -144.39453125 481.3359375 C-144.12450358 480.38975791 -143.8544759 479.44357833 -143.57626557 478.46872663 C-134.72803846 447.4660568 -125.7975228 416.48846162 -116.77710724 385.53546143 C-113.89478201 375.64446517 -111.02819569 365.74896819 -108.16796875 355.8515625 C-107.74548415 354.3901764 -107.32297882 352.92879628 -106.90045166 351.46742249 C-106.28495861 349.33860257 -105.66948201 347.20977792 -105.05408669 345.08092976 C-83.26462363 269.7062893 -61.30814834 194.38003051 0 0 Z " fill="#FAAB42" transform="translate(1590,19)"/>
</svg>
